<svg width="256" height="256" viewBox="0 0 256 256" fill="none" xmlns="http://www.w3.org/2000/svg">
<path d="M198.72 68.88C194.634 64.792 189.783 61.5492 184.443 59.3367C179.103 57.1242 173.38 55.9854 167.6 55.9854C161.82 55.9854 156.097 57.1242 150.757 59.3367C145.417 61.5492 140.566 64.792 136.48 68.88L128 77.36L119.52 68.88C111.266 60.6265 100.072 55.9897 88.4 55.9897C76.7277 55.9897 65.5335 60.6265 57.28 68.88C49.0265 77.1335 44.3897 88.3277 44.3897 100C44.3897 111.672 49.0265 122.866 57.28 131.12L128 201.84L198.72 131.12C202.808 127.034 206.051 122.183 208.263 116.843C210.476 111.503 211.615 105.78 211.615 100C211.615 94.2201 210.476 88.4968 208.263 83.1572C206.051 77.8175 202.808 72.9661 198.72 68.88Z" fill="#F17B7B"/>
</svg>
